<svg width="20" height="22" viewBox="0 0 20 22" fill="none" xmlns="http://www.w3.org/2000/svg">
<path d="M9.75 10.8333C12.74 10.8333 15.1667 8.40667 15.1667 5.41667C15.1667 2.42667 12.74 0 9.75 0C6.76 0 4.33333 2.42667 4.33333 5.41667C4.33333 8.40667 6.76 10.8333 9.75 10.8333ZM9.75 2.16667C11.5375 2.16667 13 3.62917 13 5.41667C13 7.20417 11.5375 8.66667 9.75 8.66667C7.9625 8.66667 6.5 7.20417 6.5 5.41667C6.5 3.62917 7.9625 2.16667 9.75 2.16667ZM1.08333 21.6667H18.4167C19.0125 21.6667 19.5 21.1792 19.5 20.5833V19.5C19.5 15.3183 16.0983 11.9167 11.9167 11.9167H7.58333C3.40167 11.9167 0 15.3183 0 19.5V20.5833C0 21.1792 0.4875 21.6667 1.08333 21.6667ZM7.58333 14.0833H11.9167C14.9067 14.0833 17.3333 16.51 17.3333 19.5H2.16667C2.16667 16.51 4.59333 14.0833 7.58333 14.0833Z" fill="#111827"/>
</svg>
